<?xml version="1.0" encoding="utf-8"?>
<!-- Generator: Adobe Illustrator 18.1.1, SVG Export Plug-In . SVG Version: 6.00 Build 0)  -->
<!DOCTYPE svg PUBLIC "-//W3C//DTD SVG 1.1//EN" "http://www.w3.org/Graphics/SVG/1.1/DTD/svg11.dtd">
<svg version="1.1" id="Layer_1" xmlns="http://www.w3.org/2000/svg" xmlns:xlink="http://www.w3.org/1999/xlink" x="0px" y="0px"
	 viewBox="0 0 180.7 60.4" enable-background="new 0 0 180.7 60.4" xml:space="preserve">
<path fill="#0055A6" d="M25.1,29.8c-0.4-1.4-1.1-3.2-2.6-4.7c-1.3-1.3-2.8-2-4-2.4c-1.2-0.4-2.2-0.4-2.6-0.4c-0.1,0-0.1,0-0.1,0H0
	v30.2l1.3,0l5.9-0.1V29h6.6c1.2,0,2,0.2,2.6,0.5c0.9,0.4,1.3,1.1,1.6,1.8c0.3,0.7,0.3,1.4,0.3,1.9c0,0.1,0,0.2,0,0.3l0,0.1v0l0,0.1
	v19h7V32.9l0,0l0-0.1C25.5,32.4,25.5,31.3,25.1,29.8z"/>
<path fill="#0055A6" d="M41.9,46.2L41.9,46.2L41.9,46.2L41.9,46.2l-0.1,0c-0.3,0-1.2,0-2.2-0.3c-0.5-0.1-0.9-0.3-1.4-0.6
	c-0.4-0.3-0.8-0.6-1.1-1.1l-0.1-0.1L37,44c0,0-0.4-0.4-0.8-1.3c-0.3-0.7-0.6-1.6-0.7-2.9h20.7l0-1.3c0,0,0-0.2,0-0.4
	c0-0.7,0-2.4-0.3-4.2c-0.2-1.8-0.7-3.9-1.6-5.5l0,0c-0.1-0.1-0.8-1.6-2.6-3.1c-1.8-1.5-4.7-3-8.8-3c-4.2,0-7.2,1.5-9.2,2.9
	c-1.8,1.3-2.7,2.7-2.9,3c-0.2,0.2-0.8,1-1.4,2.4c-0.7,1.5-1.3,3.8-1.3,6.6c0,0.1,0,0.3,0,0.8c0,1,0.1,2.8,0.6,4.8
	c0.5,2,1.5,4.2,3.3,6c0.1,0.2,0.9,1.1,2.6,2c1.7,1,4.3,1.9,8,1.9c6.9,0,10.7-0.1,10.7-0.1l0.6,0l5-6.3H41.9z M46.9,29.9
	c1,0.7,1.5,1.8,1.8,2.8c0.1,0.4,0.2,0.8,0.2,1.1H35.8c0.2-0.9,0.6-1.6,1.1-2.3c0.3-0.5,0.7-0.9,0.9-1.1c0.1-0.1,0.2-0.2,0.3-0.3
	l0.1-0.1l0,0c0.6-0.5,1.3-0.8,2.1-1c0.8-0.2,1.5-0.2,1.9-0.2c0.1,0,0.2,0,0.2,0l0.1,0l0,0l0,0l0,0h0c1.5,0,2.6,0.3,3.4,0.6
	c0.4,0.1,0.6,0.3,0.8,0.4C46.8,29.9,46.8,29.9,46.9,29.9L46.9,29.9z"/>
<polygon fill="#0055A6" points="87.8,22.5 79.2,22.5 72.7,31.5 66,22.5 57.5,22.5 59,24.6 68.1,36.9 56.6,52.6 65.1,52.6 72.5,42.7 
	79.8,52.5 88.4,52.5 76.9,37.2 "/>
<path fill="#0055A6" d="M102.8,46c-0.2-0.1-0.3-0.3-0.5-0.5c-0.2-0.3-0.3-0.7-0.4-1.1c-0.1-0.4-0.1-0.8-0.1-1c0-0.1,0-0.2,0-0.2l0,0
	l0,0l0-0.1V29h9.3v-6.4h-9.4v-7.8h-7l0,1.3l-0.1,6.4h-4.3L85.8,29h9v14.8v0c0,0.1,0,0.9,0.2,2.1c0.2,1.2,0.6,2.6,1.6,3.9
	c0.6,0.7,1.3,1.3,2.1,1.7c1.1,0.6,2.4,0.8,3.4,1c1,0.1,1.8,0.2,2.1,0.2c0.1,0,0.1,0,0.1,0h6.9v-6.4H104
	C103.4,46.3,103,46.1,102.8,46z"/>
<polygon fill="#0055A6" points="115.4,52.7 122.3,52.7 122.3,51.3 122.3,22.6 115.4,22.6 "/>
<polygon fill="#0055A6" points="147.9,22.5 140.2,42.9 132.5,22.5 125,22.5 125.6,24.3 136.2,52.6 144.2,52.6 155.5,22.5 "/>
<path fill="#0055A6" d="M180.2,29.8c-0.2-0.8-0.5-1.6-1-2.4c-0.5-0.8-1.1-1.6-1.9-2.2l-0.7,0.8h0l0.7-0.8c-1.7-1.4-3.6-2-5.1-2.3
	c-1.5-0.3-2.6-0.3-2.7-0.3h0l0,0h-11.8l-2.1,6.4h13.1c0.5,0,0.9,0,1.2,0.1c0.5,0.1,0.8,0.1,1.1,0.3c0.4,0.2,0.8,0.5,1.4,0.9l0,0
	c0.3,0.2,0.4,0.4,0.6,0.6c0.2,0.3,0.4,0.7,0.4,1c0.1,0.3,0.1,0.6,0.1,0.6v0h0l0,0v0.3h-6c-1.9,0-3.8,0.3-5.5,0.8
	c-1.7,0.6-3.3,1.5-4.6,2.7c-0.6,0.6-1.1,1.3-1.4,2c-0.5,1-0.7,2.1-0.9,3c-0.1,0.9-0.2,1.6-0.2,1.9c0,0.1,0,0.1,0,0.2
	c0,0,0,0.1,0,0.1c0,0.4,0,1.3,0.3,2.4c0.3,1.1,0.7,2.5,1.7,3.8l0,0l0,0c0.6,0.8,1.4,1.4,2.1,1.8c1.2,0.6,2.4,0.9,3.3,1.1
	c0.9,0.2,1.6,0.2,1.6,0.2h0h16.5V33.3c0,0,0-0.1,0-0.2C180.7,32.6,180.6,31.3,180.2,29.8z M166.4,46.2L166.4,46.2c0,0-0.2,0-0.4,0
	c-0.3,0-0.7,0-1.2-0.1c-0.3-0.1-0.7-0.2-1-0.3c-0.5-0.2-0.8-0.5-1.1-0.9c-0.3-0.4-0.5-1-0.5-1.9c0-1.1,0.3-1.8,0.6-2.3
	c0.3-0.4,0.6-0.7,1-0.9c0.6-0.4,1.3-0.6,1.9-0.7c0.6-0.1,1.1-0.1,1.3-0.1l0.1,0l0,0v0l0,0h6.6v7.3L166.4,46.2L166.4,46.2z"/>
<path fill="#F7B318" d="M73.3,19.7c4.2,0,7.6-3.4,7.6-7.6c0-4.2-3.4-7.6-7.6-7.6c-4.2,0-7.6,3.4-7.6,7.6
	C65.7,16.3,69.1,19.7,73.3,19.7z"/>
<path fill="#0055A6" d="M118.9,21.5c1.9,0,3.5-1.5,3.5-3.5c0-1.9-1.6-3.5-3.5-3.5c-1.9,0-3.5,1.5-3.5,3.5
	C115.4,19.9,116.9,21.5,118.9,21.5z"/>
</svg>
